# xmcd
#
# Track frame offsets: 
#        150
#        17877
#        37486
#        63697
#        75213
#        95620
#        110387
#        142149
#        166213
#        205147
#
# Disc length: 2893 seconds
#
# Revision: 6
# Processed by: cddbd v1.5.2PL0 Copyright (c) Steve Scherf et al.
# Submitted via: ExactAudioCopy v1.3
#
DISCID=8b0b4b0a
DTITLE=Aretha Franklin - Aretha - Live at Fillmore West
DYEAR=1971
DGENRE=Soul
TTITLE0=Respect
TTITLE1=Love the One You're With
TTITLE2=Bridge Over Troubled Waters
TTITLE3=Eleanor Rigby
TTITLE4=Make It with You
TTITLE5=Don't Play That Song
TTITLE6=Dr. Feelgood
TTITLE7=Spirit in the Dark
TTITLE8=Spirit in the Dark (Reprise with Ray Charles)
TTITLE9=Reach Out and Touch (Somebody's Hand)
EXTD=
EXTT0=
EXTT1=
EXTT2=
EXTT3=
EXTT4=
EXTT5=
EXTT6=
EXTT7=
EXTT8=
EXTT9=
PLAYORDER=
